FONTRA__test_Regular.ufo
<glyph name="question" format="2">
  <advance width="531"/>
  <unicode hex="003F"/>
  <outline>
    <contour>
      <point x="223" y="239" type="line"/>
      <point x="223" y="300"/>
      <point x="238" y="305"/>
      <point x="277" y="305" type="curve"/>
      <point x="277" y="445" type="line"/>
      <point x="127" y="445"/>
      <point x="83" y="342"/>
      <point x="83" y="239" type="curve"/>
    </contour>
    <contour>
      <point x="160" y="540" type="line"/>
      <point x="160" y="600"/>
      <point x="194" y="606"/>
      <point x="305" y="606" type="curve"/>
      <point x="305" y="746" type="line"/>
      <point x="75" y="746"/>
      <point x="20" y="643"/>
      <point x="20" y="540" type="curve"/>
    </contour>
    <component base="corner_curve" xOffset="304" yOffset="511"/>
    <component base="corner_curve" xScale="0" xyScale="-1" yxScale="1" yScale="0" xOffset="276" yOffset="512"/>
    <component base="vertical" yScale="0.17322057787174067" xOffset="63" yOffset="110"/>
    <component base="vertical" yScale="0.08269018743109155" xOffset="63" yOffset="-1"/>
  </outline>
</glyph>
<glyph name="A" format="2">
  <advance width="472"/>
  <unicode hex="0041"/>
  <outline>
    <contour>
      <point x="236" y="616" type="curve"/>
      <point x="236" y="756" type="line"/>
      <point x="133" y="756"/>
      <point x="30" y="698"/>
      <point x="30" y="521" type="curve"/>
      <point x="170" y="521" type="line"/>
      <point x="170" y="587"/>
      <point x="185" y="616"/>
    </contour>
    <component base="vertical" yScale="0.6951025238497764" xOffset="10"/>
    <component base="corner_curve" xOffset="235" yOffset="521"/>
    <component base="vertical" yScale="0.6951025238497764" xOffset="282"/>
    <component base="vertical" xScale="0" xyScale="1" yxScale="-0.32608" yScale="0" xOffset="358.3784615384615" yOffset="220"/>
  </outline>
</glyph>
<glyph name="B" format="2">
  <advance width="434"/>
  <unicode hex="0042"/>
  <outline>
    <contour>
      <point x="40" y="750" type="line"/>
      <point x="40" y="0" type="line"/>
      <point x="180" y="0" type="line"/>
      <point x="180" y="750" type="line"/>
    </contour>
    <contour>
      <point x="274" y="219" type="line"/>
      <point x="274" y="206" type="line"/>
      <point x="414" y="206" type="line"/>
      <point x="414" y="219" type="line"/>
    </contour>
    <component base="corner_curve" xOffset="179" yOffset="515"/>
    <component base="corner_curve" xScale="0" xyScale="-1" yxScale="1" yScale="0" xOffset="151" yOffset="516"/>
    <component base="corner_curve" xOffset="207" yOffset="219"/>
    <component base="corner_curve" xScale="0" xyScale="-1" yxScale="1" yScale="0" xOffset="179" yOffset="207"/>
  </outline>
</glyph>
<glyph name="F" format="2">
  <advance width="483"/>
  <unicode hex="0046"/>
  <outline>
    <contour>
      <point x="40" y="750" type="line"/>
      <point x="40" y="0" type="line"/>
      <point x="180" y="0" type="line"/>
      <point x="180" y="750" type="line"/>
    </contour>
    <contour>
      <point x="97" y="610" type="line"/>
      <point x="418" y="610" type="line"/>
      <point x="418" y="750" type="line"/>
      <point x="97" y="750" type="line"/>
    </contour>
    <contour>
      <point x="97" y="305" type="line"/>
      <point x="361" y="305" type="line"/>
      <point x="361" y="445" type="line"/>
      <point x="97" y="445" type="line"/>
    </contour>
  </outline>
</glyph>
<glyph name="I" format="2">
  <advance width="220"/>
  <unicode hex="0049"/>
  <outline>
    <contour>
      <point x="40" y="750" type="line"/>
      <point x="40" y="0" type="line"/>
      <point x="180" y="0" type="line"/>
      <point x="180" y="750" type="line"/>
    </contour>
  </outline>
</glyph>
<glyph name="L" format="2">
  <advance width="473"/>
  <unicode hex="004C"/>
  <outline>
    <contour>
      <point x="40" y="750" type="line"/>
      <point x="40" y="0" type="line"/>
      <point x="180" y="0" type="line"/>
      <point x="180" y="750" type="line"/>
    </contour>
    <contour>
      <point x="97" y="0" type="line"/>
      <point x="453" y="0" type="line"/>
      <point x="453" y="140" type="line"/>
      <point x="97" y="140" type="line"/>
    </contour>
  </outline>
</glyph>
<glyph name="M" format="2">
  <advance width="755"/>
  <unicode hex="004D"/>
  <outline>
    <contour>
      <point x="320" y="515" type="line"/>
      <point x="320" y="0" type="line"/>
      <point x="460" y="0" type="line"/>
      <point x="460" y="515" type="line"/>
    </contour>
    <contour>
      <point x="180" y="750" type="line"/>
      <point x="254" y="750" type="line"/>
      <point x="254" y="610" type="line"/>
      <point x="180" y="610" type="line"/>
    </contour>
    <contour>
      <point x="585" y="515" type="line"/>
      <point x="585" y="0" type="line"/>
      <point x="725" y="0" type="line"/>
      <point x="725" y="515" type="line"/>
    </contour>
    <contour>
      <point x="431" y="580" type="curve" smooth="yes"/>
      <point x="445" y="601"/>
      <point x="472" y="610"/>
      <point x="519" y="610" type="curve"/>
      <point x="519" y="750" type="line"/>
      <point x="433" y="750"/>
      <point x="371" y="730"/>
      <point x="338" y="689" type="curve" smooth="yes"/>
      <point x="294" y="633"/>
      <point x="408" y="544"/>
    </contour>
    <component base="vertical" xOffset="20"/>
    <component base="corner_curve" xOffset="253" yOffset="515"/>
    <component base="corner_curve" xOffset="518" yOffset="515"/>
  </outline>
</glyph>
<glyph name="O" format="2">
  <advance width="637"/>
  <unicode hex="004F"/>
  <outline>
    <contour>
      <point x="477" y="520" type="line"/>
      <point x="477" y="201" type="line"/>
      <point x="617" y="201" type="line"/>
      <point x="617" y="520" type="line"/>
    </contour>
    <contour>
      <point x="225.46896464414684" y="615" type="line"/>
      <point x="411.07669572193566" y="615" type="line"/>
      <point x="411" y="755" type="line"/>
      <point x="225.46896464414684" y="755" type="line"/>
    </contour>
    <contour>
      <point x="226" y="615" type="curve"/>
      <point x="226" y="755" type="line"/>
      <point x="123" y="755"/>
      <point x="20" y="697"/>
      <point x="20" y="520" type="curve"/>
      <point x="160" y="520" type="line"/>
      <point x="160" y="586"/>
      <point x="175" y="615"/>
    </contour>
    <contour>
      <point x="20" y="520" type="line"/>
      <point x="160" y="520" type="line"/>
      <point x="160" y="201" type="line"/>
      <point x="20" y="201" type="line"/>
    </contour>
    <contour>
      <point x="255" y="-5" type="line"/>
      <point x="382" y="-5" type="line"/>
      <point x="382" y="135" type="line"/>
      <point x="255" y="135" type="line"/>
    </contour>
    <component base="corner_curve" xOffset="410" yOffset="520"/>
    <component base="corner_curve" xScale="0" xyScale="-1" yxScale="1" yScale="0" xOffset="382" yOffset="202"/>
    <component base="corner_curve" xScale="0" xyScale="-1" yxScale="-1" yScale="0" xOffset="255" yOffset="202"/>
  </outline>
</glyph>
<glyph name="P" format="2">
  <advance width="406"/>
  <unicode hex="0050"/>
  <outline>
    <contour>
      <point x="40" y="750" type="line"/>
      <point x="40" y="0" type="line"/>
      <point x="180" y="0" type="line"/>
      <point x="180" y="750" type="line"/>
    </contour>
    <component base="corner_curve" xOffset="179" yOffset="515"/>
    <component base="corner_curve" xScale="0" xyScale="-1" yxScale="1" yScale="0" xOffset="151" yOffset="516"/>
  </outline>
</glyph>
<glyph name="S" format="2">
  <advance width="481"/>
  <unicode hex="0053"/>
  <outline>
    <contour>
      <point x="321" y="249" type="line"/>
      <point x="321" y="201" type="line"/>
      <point x="461" y="201" type="line"/>
      <point x="461" y="249" type="line"/>
    </contour>
    <component base="corner_curve" xOffset="254" yOffset="521"/>
    <component base="corner_curve" xOffset="254" yOffset="249"/>
    <component base="corner_curve" xScale="0" xyScale="-1" yxScale="1" yScale="0" xOffset="226" yOffset="202"/>
    <component base="corner_curve" xScale="0" xyScale="-1" yxScale="-1" yScale="0" xOffset="255" yOffset="551"/>
    <component base="corner_curve" xScale="-1" yScale="-1" xOffset="227" yOffset="230"/>
    <component base="corner_curve" xScale="0" xyScale="1" yxScale="-1" yScale="0" xOffset="255" yOffset="549"/>
  </outline>
</glyph>
<glyph name="T" format="2">
  <advance width="396"/>
  <unicode hex="0054"/>
  <outline>
    <contour>
      <point x="128" y="750" type="line"/>
      <point x="128" y="0" type="line"/>
      <point x="268" y="0" type="line"/>
      <point x="268" y="750" type="line"/>
    </contour>
    <contour>
      <point x="20" y="610" type="line"/>
      <point x="376" y="610" type="line"/>
      <point x="376" y="750" type="line"/>
      <point x="20" y="750" type="line"/>
    </contour>
  </outline>
</glyph>
<glyph name="X" format="2">
  <advance width="500"/>
  <unicode hex="0058"/>
  <outline>
    <contour>
      <point x="30" y="749" type="line"/>
      <point x="30" y="644" type="line"/>
      <point x="170" y="644" type="line"/>
      <point x="170" y="749" type="line"/>
    </contour>
    <contour>
      <point x="330" y="749" type="line"/>
      <point x="330" y="615" type="line"/>
      <point x="470" y="615" type="line"/>
      <point x="470" y="749" type="line"/>
    </contour>
    <contour>
      <point x="470" y="4" type="line"/>
      <point x="470" y="243" type="line"/>
      <point x="330" y="243" type="line"/>
      <point x="330" y="4" type="line"/>
    </contour>
    <contour>
      <point x="170" y="4" type="line"/>
      <point x="170" y="272" type="line"/>
      <point x="30" y="272" type="line"/>
      <point x="30" y="4" type="line"/>
    </contour>
    <component base="corner_curve" xScale="0" xyScale="-1" yxScale="1" yScale="0" xOffset="235" yOffset="616"/>
    <component base="corner_curve" xScale="-1" yScale="-1" xOffset="237" yOffset="644"/>
    <component base="corner_curve" xScale="0" xyScale="1" yxScale="-1" yScale="0" xOffset="265" yOffset="271"/>
    <component base="corner_curve" xOffset="263" yOffset="243"/>
  </outline>
</glyph>
<glyph name="e" format="2">
  <advance width="481"/>
  <unicode hex="0065"/>
  <outline>
    <contour>
      <point x="20" y="298" type="line"/>
      <point x="20" y="236" type="line"/>
      <point x="461" y="236" type="line"/>
      <point x="461" y="298" type="line"/>
    </contour>
    <contour>
      <point x="255" y="364" type="line"/>
      <point x="306" y="364"/>
      <point x="321" y="334"/>
      <point x="321" y="298" type="curve"/>
      <point x="461" y="298" type="line"/>
      <point x="461" y="445"/>
      <point x="358" y="504"/>
      <point x="255" y="504" type="curve"/>
    </contour>
    <contour>
      <point x="321" y="177" type="line"/>
      <point x="321" y="156"/>
      <point x="292" y="141"/>
      <point x="226" y="141" type="curve"/>
      <point x="226" y="1" type="line"/>
      <point x="403" y="1"/>
      <point x="461" y="104"/>
      <point x="461" y="177" type="curve"/>
    </contour>
    <component base="corner_curve" xScale="-1" yScale="-1" xOffset="227" yOffset="236"/>
    <component base="corner_curve" xScale="0" xyScale="1" yxScale="-1" yScale="0" xOffset="255" yOffset="297"/>
  </outline>
</glyph>
<glyph name="h" format="2">
  <advance width="500"/>
  <unicode hex="0068"/>
  <outline>
    <contour>
      <point x="307" y="265" type="line"/>
      <point x="307" y="0" type="line"/>
      <point x="447" y="0" type="line"/>
      <point x="447" y="265" type="line"/>
    </contour>
    <contour>
      <point x="40" y="750" type="line"/>
      <point x="40" y="0" type="line"/>
      <point x="180" y="0" type="line"/>
      <point x="180" y="750" type="line"/>
    </contour>
    <contour>
      <point x="180" y="500" type="line"/>
      <point x="180" y="360" type="line"/>
      <point x="241" y="360" type="line"/>
      <point x="241" y="500" type="line"/>
    </contour>
    <component base="corner_curve" xOffset="240" yOffset="265"/>
  </outline>
</glyph>
<glyph name="k" format="2">
  <advance width="467"/>
  <unicode hex="006B"/>
  <outline>
    <contour>
      <point x="307" y="120" type="line"/>
      <point x="307" y="0" type="line"/>
      <point x="447" y="0" type="line"/>
      <point x="447" y="120" type="line"/>
    </contour>
    <contour>
      <point x="40" y="750" type="line"/>
      <point x="40" y="0" type="line"/>
      <point x="180" y="0" type="line"/>
      <point x="180" y="750" type="line"/>
    </contour>
    <contour>
      <point x="180" y="355" type="line"/>
      <point x="180" y="215" type="line"/>
      <point x="241" y="215" type="line"/>
      <point x="241" y="355" type="line"/>
    </contour>
    <contour>
      <point x="281" y="485" type="line"/>
      <point x="421" y="485" type="line"/>
      <point x="421" y="605" type="line"/>
      <point x="281" y="605" type="line"/>
    </contour>
    <contour>
      <point x="154" y="250" type="line"/>
      <point x="215" y="250" type="line"/>
      <point x="215" y="390" type="line"/>
      <point x="154" y="390" type="line"/>
    </contour>
    <contour>
      <point x="215" y="390" type="curve"/>
      <point x="215" y="250" type="line"/>
      <point x="318" y="250"/>
      <point x="421" y="308"/>
      <point x="421" y="485" type="curve"/>
      <point x="281" y="485" type="line"/>
      <point x="281" y="419"/>
      <point x="266" y="390"/>
    </contour>
    <component base="corner_curve" xOffset="240" yOffset="120"/>
  </outline>
</glyph>
<glyph name="n" format="2">
  <advance width="467"/>
  <unicode hex="006E"/>
  <outline>
    <contour>
      <point x="307" y="265" type="line"/>
      <point x="307" y="0" type="line"/>
      <point x="447" y="0" type="line"/>
      <point x="447" y="265" type="line"/>
    </contour>
    <contour>
      <point x="40" y="500" type="line"/>
      <point x="40" y="0" type="line"/>
      <point x="180" y="0" type="line"/>
      <point x="180" y="500" type="line"/>
    </contour>
    <contour>
      <point x="180" y="500" type="line"/>
      <point x="180" y="360" type="line"/>
      <point x="241" y="360" type="line"/>
      <point x="241" y="500" type="line"/>
    </contour>
    <component base="corner_curve" xOffset="240" yOffset="265"/>
  </outline>
</glyph>
<glyph name="p" format="2">
  <advance width="471"/>
  <unicode hex="0070"/>
  <outline>
    <contour>
      <point x="180" y="0" type="line"/>
      <point x="180" y="-248" type="line"/>
      <point x="40" y="-248" type="line"/>
      <point x="40" y="0" type="line"/>
    </contour>
    <contour>
      <point x="40" y="0" type="line"/>
      <point x="40" y="500" type="line"/>
      <point x="180" y="500" type="line"/>
      <point x="180" y="0" type="line"/>
    </contour>
    <contour>
      <point x="180" y="0" type="line"/>
      <point x="180" y="140" type="line"/>
      <point x="245" y="140" type="line"/>
      <point x="245" y="0" type="line"/>
    </contour>
    <contour>
      <point x="180" y="360" type="line"/>
      <point x="180" y="500" type="line"/>
      <point x="216" y="500" type="line"/>
      <point x="216" y="360" type="line"/>
    </contour>
    <contour>
      <point x="451" y="294" type="line"/>
      <point x="451" y="235" type="line"/>
      <point x="311" y="235" type="line"/>
      <point x="311" y="294" type="line"/>
    </contour>
    <component base="corner_curve" yScale="-1" xOffset="244" yOffset="235"/>
    <component base="corner_curve" xScale="0" xyScale="1" yxScale="1" yScale="0" xOffset="216" yOffset="293"/>
  </outline>
</glyph>
<glyph name="q" format="2">
  <advance width="649"/>
  <unicode hex="0071"/>
  <outline>
    <contour>
      <point x="311" y="0" type="line"/>
      <point x="311" y="-249" type="line"/>
      <point x="400" y="-249" type="line"/>
      <point x="451" y="-135" type="line"/>
      <point x="451" y="0" type="line"/>
    </contour>
    <contour>
      <point x="451" y="0" type="line"/>
      <point x="451" y="500" type="line"/>
      <point x="311" y="500" type="line"/>
      <point x="311" y="0" type="line"/>
    </contour>
    <contour>
      <point x="311" y="0" type="line"/>
      <point x="311" y="140" type="line"/>
      <point x="246" y="140" type="line"/>
      <point x="246" y="0" type="line"/>
    </contour>
    <contour>
      <point x="311" y="360" type="line"/>
      <point x="311" y="500" type="line"/>
      <point x="275" y="500" type="line"/>
      <point x="275" y="360" type="line"/>
    </contour>
    <contour>
      <point x="40" y="294" type="line"/>
      <point x="40" y="235" type="line"/>
      <point x="180" y="235" type="line"/>
      <point x="180" y="294" type="line"/>
    </contour>
    <component base="corner_curve" xScale="0" xyScale="-1" yxScale="1" yScale="0" xOffset="394" yOffset="-42"/>
    <component base="corner_curve" xScale="-1" yScale="-1" xOffset="247" yOffset="235"/>
    <component base="corner_curve" xScale="0" xyScale="1" yxScale="-1" yScale="0" xOffset="275" yOffset="293"/>
  </outline>
</glyph>
<glyph name="s" format="2">
  <advance width="480"/>
  <unicode hex="0073"/>
  <outline>
    <contour>
      <point x="226" y="128" type="line"/>
      <point x="175" y="128"/>
      <point x="160" y="143"/>
      <point x="160" y="170" type="curve"/>
      <point x="20" y="170" type="line"/>
      <point x="20" y="51"/>
      <point x="123" y="-12"/>
      <point x="226" y="-12" type="curve"/>
    </contour>
    <contour>
      <point x="229" y="388" type="line"/>
      <point x="280" y="388"/>
      <point x="295" y="373"/>
      <point x="295" y="352" type="curve"/>
      <point x="435" y="352" type="line"/>
      <point x="435" y="463"/>
      <point x="332" y="528"/>
      <point x="229" y="528" type="curve"/>
    </contour>
    <contour>
      <point x="170" y="362" type="line"/>
      <point x="170" y="380"/>
      <point x="187" y="389"/>
      <point x="230" y="388" type="curve"/>
      <point x="230" y="528" type="line"/>
      <point x="74" y="528"/>
      <point x="30" y="442"/>
      <point x="30" y="362" type="curve"/>
    </contour>
    <contour>
      <point x="320" y="157" type="line"/>
      <point x="320" y="137"/>
      <point x="291" y="128"/>
      <point x="225" y="128" type="curve"/>
      <point x="225" y="-12" type="line"/>
      <point x="402" y="-12"/>
      <point x="460" y="54"/>
      <point x="460" y="157" type="curve"/>
    </contour>
    <contour>
      <point x="236" y="185" type="line"/>
      <point x="287" y="185"/>
      <point x="320" y="183"/>
      <point x="320" y="157" type="curve"/>
      <point x="460" y="157" type="line"/>
      <point x="460" y="334"/>
      <point x="339" y="325"/>
      <point x="236" y="325" type="curve"/>
    </contour>
    <contour>
      <point x="236" y="325" type="line"/>
      <point x="185" y="325"/>
      <point x="170" y="335"/>
      <point x="170" y="363" type="curve"/>
      <point x="30" y="363" type="line"/>
      <point x="30" y="231"/>
      <point x="133" y="185"/>
      <point x="236" y="185" type="curve"/>
    </contour>
  </outline>
</glyph>
<glyph name="t" format="2">
  <advance width="337"/>
  <unicode hex="0074"/>
  <outline>
    <contour>
      <point x="30" y="350" type="line"/>
      <point x="30" y="490" type="line"/>
      <point x="300" y="490" type="line"/>
      <point x="300" y="350" type="line"/>
    </contour>
    <component base="corner_curve" xScale="0" xyScale="-1" yxScale="-1" yScale="0" xOffset="317" yOffset="196"/>
    <component base="vertical" xScale="-1" yScale="0.561988730454855" xOffset="242" yOffset="195"/>
  </outline>
</glyph>
<glyph name="v" format="2">
  <advance width="452"/>
  <unicode hex="0076"/>
  <outline>
    <contour>
      <point x="130" y="0" type="line"/>
      <point x="20" y="500" type="line"/>
      <point x="160" y="500" type="line"/>
      <point x="270" y="0" type="line"/>
    </contour>
    <contour>
      <point x="322" y="0" type="line"/>
      <point x="182" y="0" type="line"/>
      <point x="292" y="500" type="line"/>
      <point x="432" y="500" type="line"/>
    </contour>
  </outline>
</glyph>
<glyph name="x" format="2">
  <advance width="452"/>
  <unicode hex="0078"/>
  <outline>
    <contour>
      <point x="226" y="136" type="curve"/>
      <point x="226" y="282" type="line"/>
      <point x="329" y="282"/>
      <point x="432" y="177"/>
      <point x="432" y="0" type="curve"/>
      <point x="292" y="0" type="line"/>
      <point x="292" y="66"/>
      <point x="277" y="136"/>
    </contour>
    <contour>
      <point x="226" y="136" type="curve"/>
      <point x="226" y="282" type="line"/>
      <point x="123" y="282"/>
      <point x="20" y="177"/>
      <point x="20" y="0" type="curve"/>
      <point x="160" y="0" type="line"/>
      <point x="160" y="66"/>
      <point x="175" y="136"/>
    </contour>
    <contour>
      <point x="226" y="361" type="line"/>
      <point x="189" y="361"/>
      <point x="160" y="430"/>
      <point x="160" y="498" type="curve"/>
      <point x="30" y="498" type="line"/>
      <point x="30" y="321"/>
      <point x="123" y="241"/>
      <point x="226" y="241" type="curve"/>
    </contour>
    <contour>
      <point x="226" y="361" type="line"/>
      <point x="270" y="361"/>
      <point x="292" y="432"/>
      <point x="292" y="498" type="curve"/>
      <point x="422" y="498" type="line"/>
      <point x="422" y="321"/>
      <point x="329" y="241"/>
      <point x="226" y="241" type="curve"/>
    </contour>
  </outline>
</glyph>
<glyph name="y" format="2">
  <advance width="511"/>
  <unicode hex="0079"/>
  <outline>
    <contour>
      <point x="331" y="0" type="line"/>
      <point x="331" y="-40" type="line"/>
      <point x="471" y="-40" type="line"/>
      <point x="471" y="0" type="line"/>
    </contour>
    <component base="corner_curve" xScale="0" xyScale="-1" yxScale="1" yScale="0" xOffset="236" yOffset="-39"/>
    <component base="corner_curve" xScale="-1" yScale="-1" xOffset="237" yOffset="-11"/>
    <component base="n" xScale="-1" yScale="-1" xOffset="511" yOffset="500"/>
  </outline>
</glyph>
<glyph name="corner_curve" format="2">
  <advance width="500"/>
  <outline>
    <contour>
      <point x="1" y="95" type="line"/>
      <point x="52" y="95"/>
      <point x="67" y="66"/>
      <point x="67" y="0" type="curve"/>
      <point x="207" y="0" type="line"/>
      <point x="207" y="177"/>
      <point x="104" y="235"/>
      <point x="1" y="235" type="curve"/>
    </contour>
  </outline>
</glyph>
<glyph name="curved_thing" format="2">
  <advance width="287"/>
  <outline>
    <contour>
      <point x="267" y="401.5" type="curve" smooth="yes"/>
      <point x="267" y="469.7071666003"/>
      <point x="211.7071666003" y="525"/>
      <point x="143.5" y="525" type="curve" smooth="yes"/>
      <point x="75.29283339969999" y="525"/>
      <point x="20" y="469.7071666003"/>
      <point x="20" y="401.5" type="curve" smooth="yes"/>
      <point x="20" y="333.2928333997"/>
      <point x="75.29283339969999" y="278"/>
      <point x="143.5" y="278" type="curve" smooth="yes"/>
      <point x="211.7071666003" y="278"/>
      <point x="267" y="333.2928333997"/>
    </contour>
  </outline>
</glyph>
<glyph name="vertical" format="2">
  <advance width="180"/>
  <outline>
    <contour>
      <point x="20" y="750" type="line"/>
      <point x="20" y="0" type="line"/>
      <point x="160" y="0" type="line"/>
      <point x="160" y="750" type="line"/>
    </contour>
  </outline>
</glyph>
